:version 1.10
:name ASF
:units
  mass 1
  length 1
  angle deg
:documentation
  ASF file generated by Kaydara
:root
  axis xyz
  order  tx ty tz rx ry rz
  position 0 0 0
  orientation 0 0 0
:bonedata
  begin
    id 1
    name RightUpLegDummy
    direction -0.718183 -0.695806 0.00816078
    length 4.904
    axis 0 0 0 xyz
  end
  begin
    id 2
    name RightUpLeg
    direction 3.53989e-006 -0.995788 0.0916897
    length 17.4976
    axis -3.49089 -0.000906621 0.000287158 xyz
    dof rx ry rz
  end
  begin
    id 3
    name RightLeg
    direction 0.00371093 -0.995096 -0.0988418
    length 16.5821
    axis 3.68512 0.0193738 -0.131023 xyz
    dof rx ry rz
  end
  begin
    id 4
    name RightFoot
    direction 0.000791514 -0.46099 0.887405
    length 3.77069
    axis 4.84075e-005 -0.120479 -0.188788 xyz
    dof rx ry rz
  end
  begin
    id 5
    name RightToes
    direction 0.00124746 -0.014064 0.9999
    length 3.85082
    axis 0.00048216 0.542163 -0.142577 xyz
    dof rx ry rz
  end
  begin
    id 6
    name SpineDummy
    direction 8.36599e-015 1 5.97571e-016
    length 4.6813
    axis 0 0 0 xyz
  end
  begin
    id 7
    name Spine
    direction -4.63632e-008 0.999988 0.00495137
    length 10.1015
    axis -0.00138897 0.000121419 3.25764e-006 xyz
    dof rx ry rz
  end
  begin
    id 8
    name Spine1
    direction 0 0 0
    length 0
    axis -0.00138896 0.000121452 2.39764e-006 xyz
    dof rx ry rz
  end
  begin
    id 9
    name HEadDummy
    direction -3.91456e-008 0.999999 0.00127422
    length 3.43865
    axis -0.00138896 0.000121452 2.39764e-006 xyz
  end
  begin
    id 10
    name HEad
    direction -0.0222688 0.980941 0.193023
    length 5.12695
    axis -0.00138895 0.000121452 2.39764e-006 xyz
    dof rx ry rz
  end
  begin
    id 11
    name LeftShoulder1Dummy
    direction 0.998891 -0.0402508 -0.0244456
    length 3.5433
    axis -0.00138896 0.000121452 2.39764e-006 xyz
  end
  begin
    id 12
    name LeftShoulder1
    direction 0.99951 -0.000327743 0.0313091
    length 4.05031
    axis -0.00138896 0.000121452 2.39764e-006 xyz
    dof rx ry rz
  end
  begin
    id 13
    name LeftArm
    direction 0.998561 -0.00100054 -0.0536182
    length 10.3537
    axis -23.1894 0.134784 0.96751 xyz
    dof rx ry rz
  end
  begin
    id 14
    name LeftForeArm
    direction 0.998903 0.00866434 0.046012
    length 8.70632
    axis -9.91835 -0.06569 -0.177792 xyz
    dof rx ry rz
  end
  begin
    id 15
    name LeftHand
    direction 0.992938 -0.0411636 0.11126
    length 5.32135
    axis -0.00960227 -0.00340091 0.185174 xyz
    dof rx ry rz
  end
  begin
    id 16
    name RightShoulderDummy
    direction -0.998891 -0.0402509 -0.0244414
    length 3.5433
    axis -0.00138896 0.000121452 2.39764e-006 xyz
  end
  begin
    id 17
    name RightShoulder
    direction -0.99951 -0.000327827 0.0313133
    length 4.05031
    axis 0.215806 0.000203644 -0.00680151 xyz
    dof rx ry rz
  end
  begin
    id 18
    name RightArm
    direction -0.998573 -0.000999583 -0.053403
    length 10.3947
    axis -23.2009 -0.134239 -0.9641 xyz
    dof rx ry rz
  end
  begin
    id 19
    name RightForeArm
    direction -0.998898 0.00868026 0.0461306
    length 8.68355
    axis -9.92322 0.0658061 0.178869 xyz
    dof rx ry rz
  end
  begin
    id 20
    name RightHand
    direction -0.992843 -0.0414603 0.112003
    length 5.28593
    axis -0.00960634 0.00330671 -0.185226 xyz
    dof rx ry rz
  end
  begin
    id 21
    name LeftUpLegDummy
    direction 0.718183 -0.695806 0.00816078
    length 4.904
    axis 0 0 0 xyz
  end
  begin
    id 22
    name LeftUpLeg
    direction -6.8115e-006 -0.995793 0.0916336
    length 17.4976
    axis -3.48766 0.00143441 -0.000523914 xyz
    dof rx ry rz
  end
  begin
    id 23
    name LeftLeg
    direction -0.00601357 -0.995091 -0.0987824
    length 16.5821
    axis 3.68177 -0.00654038 -0.00028478 xyz
    dof rx ry rz
  end
  begin
    id 24
    name LeftFoot
    direction -0.00417578 -0.460984 0.887399
    length 3.77069
    axis 1.87232e-006 4.66002e-005 -8.1837e-006 xyz
    dof rx ry rz
  end
  begin
    id 25
    name LeftToes
    direction 0.00818058 -0.00485161 0.999955
    length 3.85048
    axis 1.06246e-005 4.65855e-005 -8.18502e-006 xyz
    dof rx ry rz
  end
:hierarchy
  begin
    root RightUpLegDummy SpineDummy LeftUpLegDummy
    RightUpLegDummy RightUpLeg
    RightUpLeg RightLeg
    RightLeg RightFoot
    RightFoot RightToes
    SpineDummy Spine
    Spine Spine1
    Spine1 HEadDummy LeftShoulder1Dummy RightShoulderDummy
    HEadDummy HEad
    LeftShoulder1Dummy LeftShoulder1
    LeftShoulder1 LeftArm
    LeftArm LeftForeArm
    LeftForeArm LeftHand
    RightShoulderDummy RightShoulder
    RightShoulder RightArm
    RightArm RightForeArm
    RightForeArm RightHand
    LeftUpLegDummy LeftUpLeg
    LeftUpLeg LeftLeg
    LeftLeg LeftFoot
    LeftFoot LeftToes
  end

:SAMPLES-PER-SECOND 30
:FULLY-SPECIFIED
:DEGREES
1
root  -5.63492 39.7234 -4.84018 175.492 42.1448 176.193
RightUpLeg  -4.52105 -9.58888 -9.24385
RightLeg  15.0102 -16.1566 -4.9603
RightFoot  -3.05014 -0.839137 11.147
RightToes  -5.8209e-011 0 -3.6325e-017
Spine  -8.24425 -0.125035 -10.9774
Spine1  25.9378 0.386485 -0.154964
HEad  -7.57986 9.74222 4.11348
LeftShoulder1  2.02191 -4.10746 -20.1191
LeftArm  16.4559 8.36802 -56.1278
LeftForeArm  31.2477 -76.6338 -110.724
LeftHand  -0.0119135 5.32135 36.1898
RightShoulder  1.04625 0.524226 19.6338
RightArm  6.79249 -9.7967 59.8365
RightForeArm  2.88177 24.0397 4.99371
RightHand  -0.262823 2.29344 -4.16522
LeftUpLeg  3.41159 -0.261743 -4.11988
LeftLeg  7.17269 10.1792 0.94786
LeftFoot  -8.65391 0.0290654 1.11761
LeftToes  -3.91115e-011 -2.2622e-010 9.51032e-012
2
root  -5.65152 39.7234 -4.82846 175.538 41.9906 176.188
RightUpLeg  -4.56348 -9.73917 -9.27446
RightLeg  15.0012 -16.162 -4.95055
RightFoot  -3.02909 -0.839169 11.1475
RightToes  -5.8209e-011 0 -3.6325e-017
Spine  -8.21966 -0.151867 -10.8224
Spine1  26.0095 0.457921 -0.424226
HEad  -7.92521 11.4458 3.83046
LeftShoulder1  2.0071 -4.06268 -20.0777
LeftArm  16.5877 8.19099 -56.1165
LeftForeArm  30.2915 -76.6953 -109.986
LeftHand  0.159388 5.86492 35.477
RightShoulder  1.04062 0.486645 19.7473
RightArm  7.06176 -9.72834 59.7938
RightForeArm  2.71447 24.0385 5.00208
RightHand  -0.26907 2.23061 -4.29061
LeftUpLeg  3.28708 -0.302503 -4.1477
LeftLeg  7.2358 10.0667 0.972809
LeftFoot  -8.63163 0.0288488 1.12097
LeftToes  -3.91115e-011 -2.2622e-010 9.51032e-012
3
root  -5.6769 39.7239 -4.81207 175.556 41.7892 176.154
RightUpLeg  -4.60448 -9.87549 -9.33534
RightLeg  15.0014 -16.2219 -4.96124
RightFoot  -2.99325 -0.839714 11.1561
RightToes  -5.8209e-011 0 -3.6325e-017
Spine  -8.17834 -0.140076 -10.6161
Spine1  26.1573 0.605298 -0.772559
HEad  -8.67175 14.1281 2.97809
LeftShoulder1  2.00702 -4.05104 -20.1201
LeftArm  16.8375 8.03194 -55.9826
LeftForeArm  29.7574 -76.736 -109.485
LeftHand  0.244035 6.14611 34.9294
RightShoulder  1.02666 0.419194 19.8494
RightArm  7.52498 -9.60048 59.822
RightForeArm  2.40336 23.9294 4.9941
RightHand  -0.287658 2.05784 -4.66607
LeftUpLeg  3.17377 -0.377231 -4.21417
LeftLeg  7.25524 9.94575 0.99446
LeftFoot  -8.57301 0.0276176 1.14011
LeftToes  -3.91115e-011 -2.2622e-010 9.51032e-012
4
root  -5.69718 39.7262 -4.80077 175.517 41.6557 176.111
RightUpLeg  -4.58229 -9.90911 -9.39487
RightLeg  14.979 -16.3164 -4.97929
RightFoot  -2.95773 -0.842105 11.1799
RightToes  -5.8209e-011 0 -3.6325e-017
Spine  -8.10819 -0.0752785 -10.5128
Spine1  26.262 0.736637 -0.92818
HEad  -9.40672 16.1392 1.92115
LeftShoulder1  2.0419 -4.1525 -20.2316
LeftArm  17.0724 8.10652 -55.7428
LeftForeArm  30.4642 -76.7255 -109.661
LeftHand  0.0704192 5.58475 35.4279
RightShoulder  1.01548 0.38127 19.816
RightArm  7.80725 -9.52495 59.967
RightForeArm  2.34371 23.7589 4.96089
RightHand  -0.310456 1.9889 -5.06226
LeftUpLeg  3.17071 -0.438665 -4.27804
LeftLeg  7.19503 9.87752 0.990474
LeftFoot  -8.50626 0.0255257 1.17263
LeftToes  -3.91115e-011 -2.2622e-010 9.51032e-012
5
root  -5.71216 39.7296 -4.79259 175.506 41.5194 176.119
RightUpLeg  -4.51609 -9.97854 -9.41843
RightLeg  14.9029 -16.3929 -4.96837
RightFoot  -2.92232 -0.845054 11.1799
RightToes  -5.8209e-011 0 -3.6325e-017
Spine  -7.99509 -0.0391835 -10.4689
Spine1  26.2428 0.780008 -0.960281
HEad  -9.81049 17.2542 1.12315
LeftShoulder1  2.08276 -4.28958 -20.2914
LeftArm  17.2599 8.34903 -55.472
LeftForeArm  31.2195 -76.7151 -109.859
LeftHand  -0.103693 5.03232 36.0825
RightShoulder  1.01405 0.39058 19.7083
RightArm  7.77139 -9.54247 60.1421
RightForeArm  2.69279 23.6909 4.93089
RightHand  -0.326443 2.13239 -5.22483
LeftUpLeg  3.16902 -0.458617 -4.28246
LeftLeg  7.16871 9.75144 0.974531
LeftFoot  -8.46842 0.0230806 1.21064
LeftToes  -3.91115e-011 -2.2622e-010 9.51032e-012
